<svg width="25" height="25" viewBox="0 0 25 25" fill="none" xmlns="http://www.w3.org/2000/svg">
<mask id="mask0_46_7" style="mask-type:alpha" maskUnits="userSpaceOnUse" x="0" y="0" width="25" height="25">
<rect x="0.710938" y="0.157104" width="24" height="24" fill="#D9D9D9"/>
</mask>
<g mask="url(#mask0_46_7)">
<path d="M16.8859 13.1571H5.71094C5.4276 13.1571 5.1901 13.0613 4.99844 12.8696C4.80677 12.6779 4.71094 12.4404 4.71094 12.1571C4.71094 11.8738 4.80677 11.6363 4.99844 11.4446C5.1901 11.2529 5.4276 11.1571 5.71094 11.1571H16.8859L11.9859 6.25709C11.7859 6.05709 11.6901 5.82376 11.6984 5.55709C11.7068 5.29043 11.8109 5.05709 12.0109 4.85709C12.2109 4.67376 12.4443 4.57793 12.7109 4.56959C12.9776 4.56126 13.2109 4.65709 13.4109 4.85709L20.0109 11.4571C20.1109 11.5571 20.1818 11.6654 20.2234 11.7821C20.2651 11.8988 20.2859 12.0238 20.2859 12.1571C20.2859 12.2904 20.2651 12.4154 20.2234 12.5321C20.1818 12.6488 20.1109 12.7571 20.0109 12.8571L13.4109 19.4571C13.2276 19.6404 12.9984 19.7321 12.7234 19.7321C12.4484 19.7321 12.2109 19.6404 12.0109 19.4571C11.8109 19.2571 11.7109 19.0196 11.7109 18.7446C11.7109 18.4696 11.8109 18.2321 12.0109 18.0321L16.8859 13.1571Z" fill="white"/>
</g>
</svg>
