<svg width="25" height="25" viewBox="0 0 25 25" fill="none" xmlns="http://www.w3.org/2000/svg">
<mask id="mask0_46_19" style="mask-type:alpha" maskUnits="userSpaceOnUse" x="0" y="0" width="25" height="25">
<rect x="0.710938" y="0.157104" width="24" height="24" fill="#D9D9D9"/>
</mask>
<g mask="url(#mask0_46_19)">
<path d="M8.53574 13.1572L13.4357 18.0572C13.6357 18.2572 13.7316 18.4905 13.7232 18.7572C13.7149 19.0238 13.6107 19.2572 13.4107 19.4572C13.2107 19.6405 12.9774 19.7363 12.7107 19.7447C12.4441 19.753 12.2107 19.6572 12.0107 19.4572L5.41074 12.8572C5.31074 12.7572 5.23991 12.6488 5.19824 12.5322C5.15658 12.4155 5.13574 12.2905 5.13574 12.1572C5.13574 12.0238 5.15658 11.8988 5.19824 11.7822C5.23991 11.6655 5.31074 11.5572 5.41074 11.4572L12.0107 4.85715C12.1941 4.67382 12.4232 4.58215 12.6982 4.58215C12.9732 4.58215 13.2107 4.67382 13.4107 4.85715C13.6107 5.05715 13.7107 5.29465 13.7107 5.56965C13.7107 5.84465 13.6107 6.08215 13.4107 6.28215L8.53574 11.1572H19.7107C19.9941 11.1572 20.2316 11.253 20.4232 11.4447C20.6149 11.6363 20.7107 11.8738 20.7107 12.1572C20.7107 12.4405 20.6149 12.678 20.4232 12.8697C20.2316 13.0613 19.9941 13.1572 19.7107 13.1572H8.53574Z" fill="white"/>
</g>
</svg>
