<svg width="25" height="25" viewBox="0 0 25 25" fill="none" xmlns="http://www.w3.org/2000/svg">
<mask id="mask0_48_25" style="mask-type:alpha" maskUnits="userSpaceOnUse" x="0" y="0" width="25" height="25">
<rect x="0.710938" y="0.157104" width="24" height="24" fill="#D9D9D9"/>
</mask>
<g mask="url(#mask0_48_25)">
<path d="M12.7109 15.1571C13.5443 15.1571 14.2526 14.8654 14.8359 14.2821C15.4193 13.6988 15.7109 12.9904 15.7109 12.1571C15.7109 11.3238 15.4193 10.6154 14.8359 10.0321C14.2526 9.44877 13.5443 9.1571 12.7109 9.1571C11.8776 9.1571 11.1693 9.44877 10.5859 10.0321C10.0026 10.6154 9.71094 11.3238 9.71094 12.1571C9.71094 12.9904 10.0026 13.6988 10.5859 14.2821C11.1693 14.8654 11.8776 15.1571 12.7109 15.1571ZM12.7109 17.1571C11.3276 17.1571 10.1484 16.6696 9.17344 15.6946C8.19844 14.7196 7.71094 13.5404 7.71094 12.1571C7.71094 10.7738 8.19844 9.5946 9.17344 8.6196C10.1484 7.6446 11.3276 7.1571 12.7109 7.1571C14.0943 7.1571 15.2734 7.6446 16.2484 8.6196C17.2234 9.5946 17.7109 10.7738 17.7109 12.1571C17.7109 13.5404 17.2234 14.7196 16.2484 15.6946C15.2734 16.6696 14.0943 17.1571 12.7109 17.1571ZM2.71094 13.1571C2.4276 13.1571 2.1901 13.0613 1.99844 12.8696C1.80677 12.6779 1.71094 12.4404 1.71094 12.1571C1.71094 11.8738 1.80677 11.6363 1.99844 11.4446C2.1901 11.2529 2.4276 11.1571 2.71094 11.1571H4.71094C4.99427 11.1571 5.23177 11.2529 5.42344 11.4446C5.6151 11.6363 5.71094 11.8738 5.71094 12.1571C5.71094 12.4404 5.6151 12.6779 5.42344 12.8696C5.23177 13.0613 4.99427 13.1571 4.71094 13.1571H2.71094ZM20.7109 13.1571C20.4276 13.1571 20.1901 13.0613 19.9984 12.8696C19.8068 12.6779 19.7109 12.4404 19.7109 12.1571C19.7109 11.8738 19.8068 11.6363 19.9984 11.4446C20.1901 11.2529 20.4276 11.1571 20.7109 11.1571H22.7109C22.9943 11.1571 23.2318 11.2529 23.4234 11.4446C23.6151 11.6363 23.7109 11.8738 23.7109 12.1571C23.7109 12.4404 23.6151 12.6779 23.4234 12.8696C23.2318 13.0613 22.9943 13.1571 22.7109 13.1571H20.7109ZM12.7109 5.1571C12.4276 5.1571 12.1901 5.06127 11.9984 4.8696C11.8068 4.67794 11.7109 4.44044 11.7109 4.1571V2.1571C11.7109 1.87377 11.8068 1.63627 11.9984 1.4446C12.1901 1.25294 12.4276 1.1571 12.7109 1.1571C12.9943 1.1571 13.2318 1.25294 13.4234 1.4446C13.6151 1.63627 13.7109 1.87377 13.7109 2.1571V4.1571C13.7109 4.44044 13.6151 4.67794 13.4234 4.8696C13.2318 5.06127 12.9943 5.1571 12.7109 5.1571ZM12.7109 23.1571C12.4276 23.1571 12.1901 23.0613 11.9984 22.8696C11.8068 22.6779 11.7109 22.4404 11.7109 22.1571V20.1571C11.7109 19.8738 11.8068 19.6363 11.9984 19.4446C12.1901 19.2529 12.4276 19.1571 12.7109 19.1571C12.9943 19.1571 13.2318 19.2529 13.4234 19.4446C13.6151 19.6363 13.7109 19.8738 13.7109 20.1571V22.1571C13.7109 22.4404 13.6151 22.6779 13.4234 22.8696C13.2318 23.0613 12.9943 23.1571 12.7109 23.1571ZM6.36094 7.2071L5.28594 6.1571C5.08594 5.97377 4.9901 5.74044 4.99844 5.4571C5.00677 5.17377 5.1026 4.9321 5.28594 4.7321C5.48594 4.5321 5.7276 4.4321 6.01094 4.4321C6.29427 4.4321 6.5276 4.5321 6.71094 4.7321L7.76094 5.8071C7.94427 6.0071 8.03594 6.24044 8.03594 6.5071C8.03594 6.77377 7.94427 7.0071 7.76094 7.2071C7.5776 7.4071 7.34844 7.50294 7.07344 7.4946C6.79844 7.48627 6.56094 7.39044 6.36094 7.2071ZM18.7109 19.5821L17.6609 18.5071C17.4776 18.3071 17.3859 18.0696 17.3859 17.7946C17.3859 17.5196 17.4776 17.2904 17.6609 17.1071C17.8443 16.9071 18.0734 16.8113 18.3484 16.8196C18.6234 16.8279 18.8609 16.9238 19.0609 17.1071L20.1359 18.1571C20.3359 18.3404 20.4318 18.5738 20.4234 18.8571C20.4151 19.1404 20.3193 19.3821 20.1359 19.5821C19.9359 19.7821 19.6943 19.8821 19.4109 19.8821C19.1276 19.8821 18.8943 19.7821 18.7109 19.5821ZM17.6609 7.2071C17.4609 7.02377 17.3651 6.7946 17.3734 6.5196C17.3818 6.2446 17.4776 6.0071 17.6609 5.8071L18.7109 4.7321C18.8943 4.5321 19.1276 4.43627 19.4109 4.4446C19.6943 4.45294 19.9359 4.54877 20.1359 4.7321C20.3359 4.9321 20.4359 5.17377 20.4359 5.4571C20.4359 5.74044 20.3359 5.97377 20.1359 6.1571L19.0609 7.2071C18.8609 7.39044 18.6276 7.4821 18.3609 7.4821C18.0943 7.4821 17.8609 7.39044 17.6609 7.2071ZM5.28594 19.5821C5.08594 19.3821 4.98594 19.1404 4.98594 18.8571C4.98594 18.5738 5.08594 18.3404 5.28594 18.1571L6.36094 17.1071C6.56094 16.9238 6.79844 16.8321 7.07344 16.8321C7.34844 16.8321 7.5776 16.9238 7.76094 17.1071C7.96094 17.2904 8.05677 17.5196 8.04844 17.7946C8.0401 18.0696 7.94427 18.3071 7.76094 18.5071L6.71094 19.5821C6.5276 19.7821 6.29427 19.8779 6.01094 19.8696C5.7276 19.8613 5.48594 19.7654 5.28594 19.5821Z" fill="white"/>
</g>
</svg>
