<svg width="25" height="25" viewBox="0 0 25 25" fill="none" xmlns="http://www.w3.org/2000/svg">
<mask id="mask0_48_37" style="mask-type:alpha" maskUnits="userSpaceOnUse" x="0" y="0" width="25" height="25">
<rect x="0.710938" y="0.157104" width="24" height="24" fill="#D9D9D9"/>
</mask>
<g mask="url(#mask0_48_37)">
<path d="M12.7855 22.1571C11.3855 22.1571 10.073 21.8905 8.84805 21.3571C7.62305 20.8238 6.55638 20.103 5.64805 19.1946C4.73971 18.2863 4.01888 17.2196 3.48555 15.9946C2.95221 14.7696 2.68555 13.4571 2.68555 12.0571C2.68555 9.99046 3.25638 8.11546 4.39805 6.43213C5.53971 4.7488 7.06888 3.51546 8.98555 2.73213C9.21888 2.6488 9.46055 2.61963 9.71055 2.64463C9.96055 2.66963 10.1689 2.7488 10.3355 2.88213C10.4689 2.9988 10.573 3.1613 10.648 3.36963C10.723 3.57796 10.7605 3.8488 10.7605 4.18213C10.7939 5.4988 11.0605 6.75296 11.5605 7.94463C12.0605 9.1363 12.7772 10.1988 13.7105 11.1321C14.6439 12.0655 15.7105 12.7821 16.9105 13.2821C18.1105 13.7821 19.3689 14.0488 20.6855 14.0821C21.0355 14.0821 21.3022 14.1113 21.4855 14.1696C21.6689 14.228 21.8189 14.3238 21.9355 14.4571C22.0689 14.6238 22.1564 14.8405 22.198 15.1071C22.2397 15.3738 22.2189 15.6155 22.1355 15.8321C21.3689 17.7488 20.1355 19.2821 18.4355 20.4321C16.7355 21.5821 14.8522 22.1571 12.7855 22.1571ZM12.7855 20.1571C14.2522 20.1571 15.6105 19.7905 16.8605 19.0571C18.1105 18.3238 19.0939 17.3155 19.8105 16.0321C18.3772 15.8988 17.0189 15.5363 15.7355 14.9446C14.4522 14.353 13.3022 13.5488 12.2855 12.5321C11.2689 11.5155 10.4605 10.3655 9.86055 9.08213C9.26055 7.7988 8.90221 6.44046 8.78555 5.00713C7.50221 5.7238 6.49805 6.7113 5.77305 7.96963C5.04805 9.22796 4.68555 10.5905 4.68555 12.0571C4.68555 14.3071 5.47305 16.2196 7.04805 17.7946C8.62305 19.3696 10.5355 20.1571 12.7855 20.1571ZM15.0105 7.45713L13.4105 5.85713C13.2105 5.65713 13.1105 5.4238 13.1105 5.15713C13.1105 4.89046 13.2105 4.65713 13.4105 4.45713L15.0105 2.85713C15.2105 2.65713 15.4439 2.55713 15.7105 2.55713C15.9772 2.55713 16.2105 2.65713 16.4105 2.85713L18.0105 4.45713C18.2105 4.65713 18.3105 4.89046 18.3105 5.15713C18.3105 5.4238 18.2105 5.65713 18.0105 5.85713L16.4105 7.45713C16.2105 7.65713 15.9772 7.75713 15.7105 7.75713C15.4439 7.75713 15.2105 7.65713 15.0105 7.45713ZM20.0105 10.4571L19.4105 9.85713C19.2105 9.65713 19.1105 9.4238 19.1105 9.15713C19.1105 8.89046 19.2105 8.65713 19.4105 8.45713L20.0105 7.85713C20.2105 7.65713 20.4439 7.55713 20.7105 7.55713C20.9772 7.55713 21.2105 7.65713 21.4105 7.85713L22.0105 8.45713C22.2105 8.65713 22.3105 8.89046 22.3105 9.15713C22.3105 9.4238 22.2105 9.65713 22.0105 9.85713L21.4105 10.4571C21.2105 10.6571 20.9772 10.7571 20.7105 10.7571C20.4439 10.7571 20.2105 10.6571 20.0105 10.4571Z" fill="white"/>
</g>
</svg>
