<svg width="25" height="25" viewBox="0 0 25 25" fill="none" xmlns="http://www.w3.org/2000/svg">
<mask id="mask0_48_31" style="mask-type:alpha" maskUnits="userSpaceOnUse" x="0" y="0" width="25" height="25">
<rect x="0.710938" y="0.157104" width="24" height="24" fill="#D9D9D9"/>
</mask>
<g mask="url(#mask0_48_31)">
<path d="M12.7109 5.1571C12.4276 5.1571 12.1901 5.06127 11.9984 4.8696C11.8068 4.67794 11.7109 4.44044 11.7109 4.1571V2.1571C11.7109 1.87377 11.8068 1.63627 11.9984 1.4446C12.1901 1.25294 12.4276 1.1571 12.7109 1.1571C12.9943 1.1571 13.2318 1.25294 13.4234 1.4446C13.6151 1.63627 13.7109 1.87377 13.7109 2.1571V4.1571C13.7109 4.44044 13.6151 4.67794 13.4234 4.8696C13.2318 5.06127 12.9943 5.1571 12.7109 5.1571ZM17.6609 7.2071C17.4776 7.02377 17.3859 6.79044 17.3859 6.5071C17.3859 6.22377 17.4776 5.99044 17.6609 5.8071L19.0609 4.3821C19.2609 4.1821 19.4984 4.0821 19.7734 4.0821C20.0484 4.0821 20.2859 4.1821 20.4859 4.3821C20.6693 4.56544 20.7609 4.79877 20.7609 5.0821C20.7609 5.36544 20.6693 5.59877 20.4859 5.7821L19.0609 7.2071C18.8776 7.39044 18.6443 7.4821 18.3609 7.4821C18.0776 7.4821 17.8443 7.39044 17.6609 7.2071ZM20.7109 13.1571C20.4276 13.1571 20.1901 13.0613 19.9984 12.8696C19.8068 12.6779 19.7109 12.4404 19.7109 12.1571C19.7109 11.8738 19.8068 11.6363 19.9984 11.4446C20.1901 11.2529 20.4276 11.1571 20.7109 11.1571H22.7109C22.9943 11.1571 23.2318 11.2529 23.4234 11.4446C23.6151 11.6363 23.7109 11.8738 23.7109 12.1571C23.7109 12.4404 23.6151 12.6779 23.4234 12.8696C23.2318 13.0613 22.9943 13.1571 22.7109 13.1571H20.7109ZM19.0609 19.9321L17.6609 18.5071C17.4776 18.3238 17.3859 18.0904 17.3859 17.8071C17.3859 17.5238 17.4776 17.2904 17.6609 17.1071C17.8443 16.9238 18.0776 16.8321 18.3609 16.8321C18.6443 16.8321 18.8776 16.9238 19.0609 17.1071L20.4859 18.5071C20.6859 18.7071 20.7859 18.9446 20.7859 19.2196C20.7859 19.4946 20.6859 19.7321 20.4859 19.9321C20.2859 20.1321 20.0484 20.2321 19.7734 20.2321C19.4984 20.2321 19.2609 20.1321 19.0609 19.9321ZM6.36094 7.2071L4.93594 5.7821C4.7526 5.59877 4.66094 5.36544 4.66094 5.0821C4.66094 4.79877 4.7526 4.56544 4.93594 4.3821C5.13594 4.1821 5.37344 4.0821 5.64844 4.0821C5.92344 4.0821 6.16094 4.1821 6.36094 4.3821L7.76094 5.8071C7.94427 5.99044 8.03594 6.22377 8.03594 6.5071C8.03594 6.79044 7.94427 7.02377 7.76094 7.2071C7.5776 7.39044 7.34427 7.4821 7.06094 7.4821C6.7776 7.4821 6.54427 7.39044 6.36094 7.2071ZM6.71094 19.1571H11.2109C11.6276 19.1571 11.9818 19.0113 12.2734 18.7196C12.5651 18.4279 12.7109 18.0738 12.7109 17.6571C12.7109 17.2404 12.5693 16.8863 12.2859 16.5946C12.0026 16.3029 11.6526 16.1571 11.2359 16.1571H9.96094L9.46094 14.9571C9.2276 14.4071 8.86094 13.9696 8.36094 13.6446C7.86094 13.3196 7.31094 13.1571 6.71094 13.1571C5.8776 13.1571 5.16927 13.4488 4.58594 14.0321C4.0026 14.6154 3.71094 15.3238 3.71094 16.1571C3.71094 16.9904 4.0026 17.6988 4.58594 18.2821C5.16927 18.8654 5.8776 19.1571 6.71094 19.1571ZM6.71094 21.1571C5.3276 21.1571 4.14844 20.6696 3.17344 19.6946C2.19844 18.7196 1.71094 17.5404 1.71094 16.1571C1.71094 14.7738 2.19844 13.5946 3.17344 12.6196C4.14844 11.6446 5.3276 11.1571 6.71094 11.1571C7.71094 11.1571 8.62344 11.4279 9.44844 11.9696C10.2734 12.5113 10.8859 13.2404 11.2859 14.1571C12.2526 14.1571 13.0651 14.5154 13.7234 15.2321C14.3818 15.9488 14.7109 16.8071 14.7109 17.8071C14.6776 18.7571 14.3234 19.5529 13.6484 20.1946C12.9734 20.8363 12.1609 21.1571 11.2109 21.1571H6.71094ZM14.7109 17.8071C14.6276 17.4738 14.5443 17.1488 14.4609 16.8321C14.3776 16.5154 14.2943 16.1904 14.2109 15.8571C14.9609 15.5404 15.5651 15.0488 16.0234 14.3821C16.4818 13.7154 16.7109 12.9738 16.7109 12.1571C16.7109 11.0571 16.3193 10.1154 15.5359 9.3321C14.7526 8.54877 13.8109 8.1571 12.7109 8.1571C11.7109 8.1571 10.8359 8.4821 10.0859 9.1321C9.33594 9.7821 8.89427 10.6071 8.76094 11.6071C8.4276 11.5238 8.08594 11.4488 7.73594 11.3821C7.38594 11.3154 7.04427 11.2404 6.71094 11.1571C6.94427 9.69044 7.63177 8.49044 8.77344 7.5571C9.9151 6.62377 11.2276 6.1571 12.7109 6.1571C14.3776 6.1571 15.7943 6.74044 16.9609 7.9071C18.1276 9.07377 18.7109 10.4904 18.7109 12.1571C18.7109 13.4404 18.3443 14.5946 17.6109 15.6196C16.8776 16.6446 15.9109 17.3738 14.7109 17.8071Z" fill="white"/>
</g>
</svg>
